<svg viewBox="0 0 900 600" xmlns="http://www.w3.org/2000/svg" role="img">
<rect width="900" height="600" fill="#F7F6F2"/>
<rect x="60" y="238" width="35" height="322" fill="none" stroke="#121212" stroke-width="1.4" opacity="0.64"/>
<rect x="106" y="435" width="34" height="125" fill="none" stroke="#121212" stroke-width="1.4" opacity="0.63"/>
<rect x="159" y="461" width="24" height="99" fill="none" stroke="#121212" stroke-width="1.4" opacity="0.61"/>
<rect x="192" y="277" width="19" height="283" fill="none" stroke="#121212" stroke-width="1.4" opacity="0.72"/>
<rect x="217" y="277" width="18" height="283" fill="none" stroke="#121212" stroke-width="1.4" opacity="0.78"/>
<rect x="249" y="202" width="14" height="358" fill="none" stroke="#121212" stroke-width="1.4" opacity="0.41"/>
<rect x="279" y="348" width="30" height="212" fill="none" stroke="#121212" stroke-width="1.4" opacity="0.44"/>
<path d="M 279 348 A 15 15 0 0 1 308 348" fill="none" stroke="#121212" stroke-width="1.4" opacity=".7"/>
<rect x="320" y="410" width="44" height="150" fill="none" stroke="#121212" stroke-width="1.4" opacity="0.53"/>
<rect x="380" y="213" width="36" height="347" fill="none" stroke="#121212" stroke-width="1.4" opacity="0.65"/>
<rect x="428" y="427" width="27" height="133" fill="none" stroke="#121212" stroke-width="1.4" opacity="0.59"/>
<rect x="462" y="361" width="28" height="199" fill="none" stroke="#121212" stroke-width="1.4" opacity="0.77"/>
<path d="M 462 361 A 14 14 0 0 1 490 361" fill="none" stroke="#121212" stroke-width="1.4" opacity=".7"/>
<rect x="514" y="439" width="38" height="121" fill="none" stroke="#121212" stroke-width="1.4" opacity="0.70"/>
<rect x="572" y="435" width="50" height="125" fill="none" stroke="#121212" stroke-width="1.4" opacity="0.60"/>
<rect x="635" y="347" width="52" height="213" fill="none" stroke="#121212" stroke-width="1.4" opacity="0.41"/>
<rect x="695" y="318" width="41" height="242" fill="none" stroke="#121212" stroke-width="1.4" opacity="0.66"/>
<rect x="749" y="362" width="25" height="198" fill="none" stroke="#121212" stroke-width="1.4" opacity="0.49"/>
<rect x="786" y="315" width="22" height="245" fill="none" stroke="#121212" stroke-width="1.4" opacity="0.78"/>
<rect x="828" y="324" width="35" height="236" fill="none" stroke="#121212" stroke-width="1.4" opacity="0.66"/>
<line x1="40" y1="560" x2="860" y2="560" stroke="#121212" stroke-width="2"/>
</svg>